# xmcd
#
# Track frame offsets:
#	150
#	9795
#	21120
#	32213
#	42961
#	56161
#	68889
#	80649
#	94464
#	106562
#	117857
#	128192
#
# Disc length: 1847 seconds
#
# Revision: 1
# Processed by: cddbd v1.5.2PL0 Copyright (c) Steve Scherf et al.
# Submitted via: audiograbber 1.83.01
#
DISCID=9707350c
DTITLE=Ray Price's Cherokee Cowboys - Western Strings
DYEAR=1965
DGENRE=Country
TTITLE0=Devil's Dream
TTITLE1=Linda Lou
TTITLE2=Crazy Arms
TTITLE3=Lil' Liza Jane
TTITLE4=Rubber Dolly
TTITLE5=Burnt Fingers
TTITLE6=Twinkle Twinkle Little Star
TTITLE7=Maiden's Prayer
TTITLE8=Your Old Love Letters
TTITLE9=Spanish Two Step
TTITLE10=Liberty Bells
TTITLE11=Sing A Sad Song
EXTD=
EXTT0=
EXTT1=
EXTT2=
EXTT3=
EXTT4=
EXTT5=
EXTT6=
EXTT7=
EXTT8=
EXTT9=
EXTT10=
EXTT11=
PLAYORDER=
